{"title":"Duplicity-AC3-5,1-DVDRip[Eng]2009","uid":4989519,"size":1466795116,"categoryP":"video","categoryS":"movies","magnet":"?xt=urn:btih:5b4fd5c19d2494a7aea881313d819c9de17b0a61&amp;dn=Duplicity-AC3-5%2C1-DVDRip%5BEng%5D2009&amp;tr=udp%3A%2F%2Ftracker.openbittorrent.com%3A80&amp;tr=udp%3A%2F%2Fopen.demonii.com%3A1337&amp;tr=udp%3A%2F%2Ftracker.coppersurfer.tk%3A6969&amp;tr=udp%3A%2F%2Fexodus.desync.com%3A6969","seeders":0,"leechers":1,"uploader":"FatFreddy31","files":-1,"time":1246962256,"description":" &lt;a href=&quot;http://www.imdb.com/title/tt1135487/&quot; rel=&quot;nofollow&quot; target=&quot;_NEW&quot;&gt;http://www.imdb.com/title/tt1135487/&lt;/a&gt;\n\nUser Rating:6.6/10 - 6,115 votes\n\nCrime/Romance/Thriller\n\nDirector:Tony Gilroy\n\nCast:Clive Owen/Julia Roberts/Tom Wilkinson/Paul Giamatti, and others.\n\nPlot:\nA pair of corporate spies who share a steamy past hook up to pull off the ultimate con job on their respective bosses.\n\nInfo:\n\nCovers included.\n\nGeneral\nComplete name                    : Duplicity-AC3-5,1-DVDRip[Eng]2009.avi\nFormat                           : AVI\nFormat/Info                      : Audio Video Interleave\nFile size                        : 1.36 GiB\nDuration                         : 2h 5mn\nOverall bit rate                 : 1 560 Kbps\nWriting application              : VirtualDubMod 1.5.4.1 (build 2178/release)\nWriting library                  : VirtualDubMod build 2178/release\n\nVideo\nFormat                           : MPEG-4 Visual\nFormat profile                   : Streaming Video@L1\nFormat settings, BVOP            : Yes\nFormat settings, QPel            : No\nFormat settings, GMC             : No warppoints\nFormat settings, Matrix          : Default\nCodec ID                         : XVID\nCodec ID/Hint                    : XviD\nDuration                         : 2h 5mn\nBit rate                         : 1 103 Kbps\nWidth                            : 640 pixels\nHeight                           : 272 pixels\nDisplay aspect ratio             : 2.35\nFrame rate                       : 23.976 fps\nResolution                       : 24 bits\nColorimetry                      : 4:2:0\nScan type                        : Progressive\nBits/(Pixel*Frame)               : 0.264\nStream size                      : 988 MiB (71%)\nWriting library                  : XviD 50\n\nAudio\nFormat                           : AC-3\nFormat/Info                      : Audio Coding 3\nCodec ID                         : 2000\nDuration                         : 2h 5mn\nBit rate mode                    : Constant\nBit rate                         : 448 Kbps\nChannel(s)                       : 6 channels\nChannel positions                : Front: L C R, Surround: L R, LFE\nSampling rate                    : 48.0 KHz\nStream size                      : 401 MiB (29%)\nAlignment                        : Split accross interleaves\nInterleave, duration             : 42 ms (1.00 video frame)\nInterleave, preload duration     : 500 ms\n\nEnjoy...","torrent":{"xt":"urn:btih:5b4fd5c19d2494a7aea881313d819c9de17b0a61","amp;dn":"Duplicity-AC3-5%2C1-DVDRip%5BEng%5D2009","amp;tr":["udp%3A%2F%2Ftracker.openbittorrent.com%3A80","udp%3A%2F%2Fopen.demonii.com%3A1337","udp%3A%2F%2Ftracker.coppersurfer.tk%3A6969","udp%3A%2F%2Fexodus.desync.com%3A6969"],"infoHash":"5b4fd5c19d2494a7aea881313d819c9de17b0a61","infoHashBuffer":{"type":"Buffer","data":[91,79,213,193,157,36,148,167,174,168,129,49,61,129,156,157,225,123,10,97]},"announce":[],"urlList":[]}}